# xmcd
#
# Track frame offsets: 
#        182
#        16810
#        36817
#
# Disc length: 687 seconds
#
# Revision: 0
# Processed by: cddbd v1.5.1PL0 Copyright (c) Steve Scherf et al.
# Submitted via: ExactAudioCopy v0.90a11
#
DISCID=1702ad03
DTITLE=from the Album Hourglass - America
DYEAR=1900
DGENRE=
TTITLE0=Young moon (Radio Edit)
TTITLE1=Young moon (Album version)
TTITLE2=Call of the wild
EXTD=
EXTT0=
EXTT1=
EXTT2=
PLAYORDER=
